<?xml version="1.0" standalone="no"?>
<!DOCTYPE svg PUBLIC "-//W3C//DTD SVG 20010904//EN"
 "http://www.w3.org/TR/2001/REC-SVG-20010904/DTD/svg10.dtd">
<svg version="1.0" xmlns="http://www.w3.org/2000/svg"
 width="225.000000pt" height="225.000000pt" viewBox="0 0 225.000000 225.000000"
 preserveAspectRatio="xMidYMid meet">
<metadata>
Created by potrace 1.14, written by Peter Selinger 2001-2017
</metadata>
<g transform="translate(0.000000,225.000000) scale(0.100000,-0.100000)"
fill="#000000" stroke="none">
<path d="M0 1125 l0 -1125 1125 0 1125 0 0 1125 0 1125 -233 0 -232 0 -13 -30
c-20 -44 -30 -134 -18 -146 6 -5 23 -15 38 -23 80 -41 -51 -4 -182 52 -58 24
-127 56 -155 70 -49 26 -49 26 -18 27 17 0 35 -4 38 -10 12 -19 42 -10 81 25
l39 34 -797 1 -798 0 0 -1125z m1190 896 c198 -76 266 -104 359 -147 56 -26
101 -51 101 -57 0 -5 -9 -7 -21 -4 -31 8 -72 -10 -65 -28 3 -8 1 -15 -4 -15
-6 0 -10 -7 -10 -15 0 -8 -13 -21 -29 -30 -18 -9 -34 -28 -41 -50 -6 -19 -20
-41 -31 -48 -10 -8 -16 -17 -12 -20 3 -4 -13 -25 -36 -47 -22 -22 -41 -42 -41
-45 0 -3 -9 -15 -20 -27 -23 -25 -26 -38 -7 -38 8 0 7 -4 -3 -10 -20 -13 -33
-13 -25 0 4 6 -1 7 -11 3 -12 -4 -14 -8 -6 -11 10 -3 10 -7 2 -17 -9 -11 5
-22 72 -53 46 -22 103 -49 129 -60 60 -26 118 -78 140 -126 63 -141 -69 -289
-242 -273 -48 4 -119 32 -360 139 -183 81 -316 146 -339 165 -71 61 -88 162
-37 229 64 84 128 117 229 118 26 1 43 3 37 5 -14 4 22 30 44 31 9 0 17 5 17
11 0 6 -9 8 -22 4 -19 -5 -18 -3 5 10 30 17 33 25 16 42 -8 8 -6 13 9 17 13 5
22 19 26 46 3 22 17 50 31 64 13 13 27 37 31 53 8 37 33 110 34 100 0 -4 10 1
22 13 12 11 32 20 45 20 13 0 23 5 23 10 0 6 -11 10 -24 10 -13 0 -27 7 -30
16 -4 9 -13 14 -22 10 -9 -3 -12 -2 -9 4 4 6 -9 17 -27 26 l-33 15 30 -6 c17
-3 64 -19 105 -34z m-183 -273 c-3 -8 -6 -5 -6 6 -1 11 2 17 5 13 3 -3 4 -12
1 -19z m333 -338 c0 -5 -8 -10 -17 -10 -15 0 -16 2 -3 10 19 12 20 12 20 0z
m-452 -360 c23 -10 42 -23 42 -27 0 -4 -9 -21 -20 -38 -11 -16 -20 -37 -20
-45 1 -12 3 -11 11 3 13 22 28 22 22 -1 -3 -13 6 -22 31 -35 l35 -16 26 44
c29 48 31 48 106 10 l30 -16 -21 -37 c-65 -111 -85 -142 -91 -142 -6 0 -311
139 -317 145 -2 2 8 21 22 44 14 22 26 43 26 46 0 13 54 85 64 85 6 0 30 -9
54 -20z"/>
<path d="M810 1443 c-44 -16 -93 -93 -59 -93 6 0 9 -9 6 -20 -3 -11 -2 -18 3
-15 4 3 11 -2 14 -11 4 -10 2 -13 -6 -8 -7 5 -8 3 -4 -5 5 -7 14 -10 22 -7 8
3 13 0 11 -7 -1 -7 5 -10 13 -8 28 8 75 7 81 -2 4 -5 10 -4 13 2 4 6 3 11 -3
11 -6 0 -8 7 -5 15 5 11 10 12 25 2 10 -6 19 -15 19 -20 0 -4 -5 -5 -12 -1 -8
5 -9 2 -5 -10 4 -10 1 -19 -7 -22 -29 -11 -10 -34 48 -58 34 -13 73 -27 89
-30 15 -4 27 -11 27 -18 0 -6 10 -3 22 8 15 12 18 13 10 3 -17 -22 -11 -26
133 -89 125 -54 171 -63 225 -40 32 13 60 54 60 87 0 41 -40 84 -106 113 -36
17 -69 30 -74 30 -4 0 -27 -31 -50 -70 -23 -38 -43 -70 -45 -70 -3 0 -99 42
-103 45 -1 1 27 53 63 115 36 62 64 115 61 117 -2 3 -11 -8 -20 -25 -11 -21
-23 -29 -41 -29 -14 0 -25 3 -25 8 0 5 -5 9 -12 9 -9 0 -9 -3 -1 -11 6 -6 9
-19 6 -28 -4 -14 -3 -14 6 -1 9 13 11 13 12 0 0 -10 3 -8 9 5 8 18 9 18 9 2 1
-10 -6 -20 -14 -23 -19 -8 -47 14 -38 29 3 6 1 7 -6 3 -6 -4 -9 -11 -6 -16 3
-5 -2 -13 -11 -18 -15 -8 -14 -11 6 -30 13 -12 27 -19 31 -16 5 3 6 -3 2 -12
-5 -14 -8 -15 -17 -3 -6 8 -19 20 -29 28 -17 13 -18 12 -12 -15 4 -18 3 -24
-2 -16 -7 9 -15 6 -34 -15 -13 -14 -19 -23 -13 -20 8 5 11 -2 10 -17 -1 -20
-4 -22 -24 -13 -20 9 -21 13 -9 31 48 74 129 217 126 221 -3 2 -33 -43 -68
-101 -35 -57 -70 -104 -78 -104 -16 0 -93 38 -93 45 0 3 19 35 41 71 23 36 40
67 38 68 -2 2 -32 16 -66 30 -59 25 -109 31 -143 19z m67 -149 c-3 -3 -12 -4
-19 -1 -8 3 -5 6 6 6 11 1 17 -2 13 -5z m238 -84 c3 -5 -1 -10 -10 -10 -9 0
-13 5 -10 10 3 6 8 10 10 10 2 0 7 -4 10 -10z"/>
<path d="M838 1263 c7 -3 16 -2 19 1 4 3 -2 6 -13 5 -11 0 -14 -3 -6 -6z"/>
<path d="M855 1250 c-16 -7 -17 -9 -3 -9 9 -1 20 4 23 9 7 11 7 11 -20 0z"/>
</g>
</svg>
